# xmcd
#
# Track frame offsets:
#	150
#	9087
#	20192
#	28515
#	41692
#	49467
#	58642
#	64494
#	73345
#	80490
#	84488
#	94796
#	101151
#
# Disc length: 1504 seconds
#
# Revision: 0
# Processed by: cddbd v1.5.2PL0 Copyright (c) Steve Scherf et al.
# Submitted via: EasyCDDAExtractor 2010.4.0.0
#
DISCID=b305de0d
DTITLE=Johnie 3 - Sexbomb
DYEAR=2009
DGENRE=Punk
TTITLE0=Sex Bomb
TTITLE1=Little Heartbreaker
TTITLE2=BMF
TTITLE3=He's Not The One
TTITLE4=Moving Up
TTITLE5=Dance
TTITLE6=Hollywood Nosebleed
TTITLE7=I Won't See You Today
TTITLE8=Go's Around, Comes Around
TTITLE9=I Wanna Die
TTITLE10=Yuengling
TTITLE11=Rubberneck II
TTITLE12=International Love Song
EXTD=
EXTT0=
EXTT1=
EXTT2=
EXTT3=
EXTT4=
EXTT5=
EXTT6=
EXTT7=
EXTT8=
EXTT9=
EXTT10=
EXTT11=
EXTT12=
PLAYORDER=
